<svg width="548" height="229" viewBox="0 0 548 229" fill="none" xmlns="http://www.w3.org/2000/svg">
<path d="M77.2183 164.945C75.405 163.313 72.0346 161.341 69.5807 160.99C66.3399 160.527 62.193 159.653 58.888 160.43C54.9645 161.354 51.3512 163.293 47.4486 164.334C43.5318 165.378 38.9451 166.778 34.9059 166.778C29.8661 166.778 26.6524 163.652 25.3504 158.835C23.6131 152.407 25.2789 146.98 28.9486 141.659C30.7748 139.011 33.1717 136.787 34.9059 134.089C36.6892 131.315 39.3299 129.101 41.3045 126.468C43.0038 124.203 45.4029 121.597 47.9068 120.189C49.049 119.546 50.2089 118.734 51.2335 117.914C52.0482 117.262 53.0664 117.175 53.8642 116.523C55.4209 115.249 57.9174 114.3 59.8046 113.62C62.0895 112.798 64.133 112.398 66.5935 112.398C71.4585 112.398 76.0477 115.505 79.3399 118.797C83.0583 122.515 87.263 126.026 91.2036 129.506C95.3735 133.19 97.9846 138.258 100.674 143.017C101.362 144.233 101.791 145.657 102.422 146.92C102.957 147.989 103.815 149.113 104.103 150.264C104.628 152.366 105.63 153.992 105.63 156.238C105.63 160.666 102.07 162.833 98.5867 164.792C94.8312 166.905 90.7277 168 86.4513 168C84.4905 168 82.3037 167.448 80.5789 166.54C79.5959 166.023 77.385 165.584 76.9128 164.639" stroke="#D2DE32" stroke-width="10" stroke-linecap="round"/>
<path d="M22.6088 91.0028C18.0414 89.142 17.0957 89.3434 10.0414 90.4674C8.98655 90.8938 7.14384 93.376 6.8277 93.8781C6.00781 95.1802 5.76579 97.0823 5.49899 98.583C4.98786 101.458 5.38816 104.988 6.19602 107.753C6.76084 109.687 7.09332 111.617 8.00393 113.438C8.86748 115.165 10.0774 116.658 11.293 118.143C12.0717 119.095 12.6111 120.481 13.5366 121.28C14.8474 122.412 16.2585 123.361 17.7623 124.221C19.5259 125.228 22.0419 126.144 24.1227 125.549C25.4912 125.158 27.0691 125.175 28.3484 124.417C29.2769 123.866 30.3241 123.543 31.2454 122.957C32.1698 122.369 33.1755 122.143 33.7939 121.171C34.5039 120.055 35.2533 118.305 35.2533 116.956C35.2533 115.048 35.4494 113.105 35.4494 111.173C35.4494 108.237 35.0259 106.085 33.99 103.353C32.0746 98.3037 27.7207 93.0855 22.6088 91.0028Z" stroke="#D2DE32" stroke-width="10" stroke-linecap="round"/>
<path d="M101.122 93.486C104.672 88.0565 112.794 82.8194 118.57 87.9534C120.827 89.1557 122.129 93.0402 122.447 94.3137C123.309 97.7619 122.055 102.351 120.53 105.401C118.774 108.913 116.873 112.565 114.061 115.377C113.143 116.295 112.037 117.031 111.109 117.958C110.073 118.995 109.065 119.899 107.831 120.692C104.882 122.588 98.2466 123.729 96.4174 119.614C95.7103 118.023 95.0452 116.152 95.0452 114.408V109.518C95.0452 108.566 95.2412 107.645 95.2412 106.73C95.2412 106.203 95.133 105.095 95.4808 104.66C95.791 104.273 95.8239 103.538 96.0689 103.048C96.3456 102.495 96.7103 101.706 96.7986 101.088C97.2257 98.0983 99.5303 95.9209 101.122 93.486Z" stroke="#D2DE32" stroke-width="10" stroke-linecap="round"/>
<path d="M37.6167 50.706C39.6624 50.706 41.6422 50.9021 43.683 50.9021C43.7376 50.9102 43.7988 50.9214 43.8651 50.9357C45.1629 51.2156 46.4882 52.2906 47.5611 53.0726C47.9809 53.3785 48.3659 53.6779 48.6276 53.8427C49.9674 54.6863 51.0386 55.9469 52.0038 57.1753C53.4804 59.0546 55.0987 60.6449 55.9355 62.9693C57.1154 66.247 57.5519 69.9744 57.1661 73.4465C56.7723 76.9911 56.385 80.1048 55.0968 83.4445C54.252 85.635 52.6259 86.7795 51.2414 88.5415C50.173 89.9013 48.8547 91.8354 47.2226 92.5494C46.2941 92.9557 44.7959 92.3068 43.8791 92.0267C40.898 91.1158 37.2083 88.4472 36.386 85.4049C35.7495 83.0499 34.705 80.7973 33.7831 78.5435C32.9571 76.5246 31.7247 74.1178 31.7247 71.8782C31.7247 70.3046 31.3188 68.1456 31.7682 66.6287C32.521 64.0883 31.4184 61.2525 32.2692 58.7001C32.5035 57.9971 32.5649 57.2591 32.9009 56.5872C33.3682 55.6525 34.056 54.8451 34.5672 53.9407C35.0557 53.0765 35.4316 52.0223 35.9504 51.207C36.3511 50.5773 36.9659 50.706 37.6167 50.706Z" stroke="#D2DE32" stroke-width="10" stroke-linecap="round"/>
<path d="M76.073 92.4187C77.3818 93.2406 78.5101 94.2266 80.1462 94.2266C81.3542 94.2266 81.8312 92.4187 82.6512 92.0267C84.1258 91.5897 85.2402 90.95 86.6155 90.2623C88.1134 89.5134 89.3993 88.0928 90.3403 86.7336C91.6569 84.8318 93.0174 83.1773 94.0214 81.092C94.6501 79.7863 95.1821 78.3538 95.6333 76.9752C96.1711 75.332 96.0254 73.6299 96.0254 71.9218C96.0254 69.6944 95.9475 67.5953 95.5897 65.4089C95.1901 62.9665 94.9235 60.4663 94.1086 58.1119C93.6551 56.802 92.4948 55.718 91.669 54.6268C90.4138 52.9681 88.2926 49.9219 85.9838 49.9219C83.9772 49.9219 81.5615 50.4149 79.7542 51.2941C75.2153 53.5022 72.9432 58.983 71.7166 63.601C71.2129 65.4974 71.3245 67.5397 71.3245 69.4822V76.3435C71.3245 79.9395 71.4531 83.1509 72.5007 86.6247C73.186 88.897 73.9759 91.102 76.073 92.4187Z" stroke="#D2DE32" stroke-width="10" stroke-linecap="round"/>
<path d="M208.889 52.8C209.689 54.08 210.089 55.36 210.089 56.64C210.089 57.28 209.929 58.08 209.609 59.04C209.449 61.12 208.249 62.8 206.009 64.08C204.409 65.04 202.249 65.36 199.529 65.04L195.689 64.32H195.929C194.489 64.16 192.329 64.08 189.449 64.08H189.209L187.049 64.32H188.249C186.649 64.64 185.609 64.96 185.129 65.28L183.929 66L182.489 67.68C182.489 67.68 182.489 67.76 182.489 67.92C182.489 67.92 182.409 67.92 182.249 67.92C182.409 67.92 182.489 67.92 182.489 67.92C182.489 67.76 182.489 67.68 182.489 67.68C181.689 69.12 181.129 71.12 180.809 73.68C180.649 75.76 180.569 78.96 180.569 83.28C180.409 84.56 180.329 86.64 180.329 89.52L179.849 107.76H186.089C188.489 107.76 190.489 108.64 192.089 110.4C193.689 112.16 194.489 114.24 194.489 116.64C194.489 118.72 193.609 120.56 191.849 122.16C190.249 123.6 188.329 124.32 186.089 124.32H179.609L178.889 159.84C178.729 162.24 177.769 164.24 176.009 165.84C174.409 167.28 172.409 168 170.009 168C167.929 168 166.089 167.2 164.489 165.6C162.889 163.84 162.169 161.92 162.329 159.84L163.049 127.92V124.32H155.129C152.729 124.32 150.729 123.52 149.129 121.92C147.529 120.16 146.729 118.08 146.729 115.68C146.729 113.6 147.529 111.76 149.129 110.16C150.889 108.56 152.889 107.76 155.129 107.76H163.289L163.529 99.36C163.689 96.32 163.769 91.68 163.769 85.44C163.769 84.16 163.769 82.48 163.769 80.4C163.929 78.32 164.169 75.92 164.489 73.2C165.129 67.28 166.329 62.72 168.089 59.52C170.969 54.88 174.329 51.84 178.169 50.4C182.169 48.48 186.649 47.52 191.609 47.52C195.609 47.84 199.689 48.32 203.849 48.96C205.609 49.44 207.289 50.72 208.889 52.8ZM189.209 64.08H189.449C189.129 64.24 188.729 64.32 188.249 64.32L189.209 64.08ZM196.409 64.32C196.729 64.48 197.209 64.56 197.849 64.56L196.409 64.32ZM180.809 73.2C180.969 72.88 181.049 72.48 181.049 72C181.049 72.48 180.969 72.88 180.809 73.2ZM273.557 151.92C275.317 152.24 276.757 153.2 277.877 154.8C278.997 156.4 279.557 158.16 279.557 160.08C279.557 160.88 279.477 161.52 279.317 162C278.837 163.92 277.557 165.6 275.477 167.04C274.357 167.68 272.997 168 271.397 168C270.277 168 269.477 167.92 268.997 167.76C260.837 166.32 253.557 164.32 247.157 161.76C240.917 159.04 235.637 155.2 231.317 150.24C226.357 144.8 223.477 139.2 222.677 133.44C222.517 132.16 222.437 130.4 222.437 128.16C222.437 125.76 222.517 124 222.677 122.88C223.157 120 224.037 117.12 225.317 114.24C227.717 108.8 231.477 104.48 236.597 101.28C241.717 97.92 247.157 96.24 252.917 96.24C259.957 96.24 266.037 98 271.157 101.52C278.677 106.64 282.437 112.56 282.437 119.28C282.437 121.84 281.557 124.24 279.797 126.48C278.197 128.56 276.117 130 273.557 130.8C271.637 131.28 269.477 131.52 267.077 131.52C264.837 131.52 263.397 131.52 262.757 131.52C258.277 131.36 251.557 131.28 242.597 131.28C241.157 131.28 239.877 130.96 238.757 130.32C239.077 131.6 239.397 132.48 239.717 132.96C240.517 134.72 241.317 136.24 242.117 137.52L241.637 137.04C241.957 137.36 242.117 137.52 242.117 137.52L242.837 138.72C242.837 138.56 242.677 138.32 242.357 138L246.197 141.84C248.277 143.6 251.397 145.44 255.557 147.36C260.357 148.96 266.357 150.48 273.557 151.92ZM255.317 113.04C254.837 112.88 253.957 112.8 252.677 112.8C251.557 112.8 250.677 112.88 250.037 113.04L252.437 112.56L248.597 113.28L245.957 114.72H256.757C257.877 114.88 259.397 114.96 261.317 114.96L260.117 114.24L260.597 114.48L259.877 114.24L258.677 113.52L259.637 114C257.717 113.36 256.277 113.04 255.317 113.04ZM248.117 113.52C247.957 113.68 247.717 113.76 247.397 113.76C247.237 113.76 247.077 113.84 246.917 114C247.077 113.84 247.237 113.76 247.397 113.76C247.717 113.76 247.957 113.68 248.117 113.52ZM260.117 114.24L259.637 114L259.877 114.24H260.117ZM269.477 114.72H269.237H269.477ZM266.117 117.84V118.08V118.32V117.84ZM266.357 120.24L266.117 119.76L266.357 120.24ZM239.717 122.64V122.16V122.4V122.64ZM238.517 126.96C238.677 126.64 238.757 126.24 238.757 125.76C238.757 126.08 238.677 126.32 238.517 126.48V126.96ZM238.517 129.12C238.677 129.28 238.757 129.52 238.757 129.84C238.757 129.36 238.677 128.96 238.517 128.64V129.12ZM238.757 130.56V130.32V130.56ZM240.197 134.64L239.957 133.92L240.197 134.64ZM242.117 137.52L242.357 138L242.117 137.52ZM247.877 143.28L246.677 142.32L247.877 143.28ZM347.905 115.44C349.185 116.56 349.985 118.48 350.305 121.2C350.305 123.6 349.505 125.6 347.905 127.2C346.305 128.48 344.305 129.28 341.905 129.6C338.065 130.08 334.145 130.32 330.145 130.32C330.465 140.24 330.945 150.08 331.585 159.84C331.745 162.08 330.945 164 329.185 165.6C327.585 167.04 325.665 167.84 323.425 168C321.025 168 319.025 167.2 317.425 165.6C316.145 164 315.345 162.08 315.025 159.84L313.825 138.72L313.585 130.8C308.625 130.8 304.945 130.72 302.545 130.56C300.145 130.4 298.145 129.6 296.545 128.16C295.105 126.56 294.385 124.56 294.385 122.16C294.225 120.08 294.945 118.24 296.545 116.64C298.145 114.88 299.985 114 302.065 114L313.105 114.24V101.52C313.105 88.88 313.345 76.24 313.825 63.6C313.825 61.2 314.625 59.28 316.225 57.84C317.985 56.24 320.065 55.44 322.465 55.44C324.385 55.44 326.145 56.24 327.745 57.84C329.345 59.44 330.145 61.2 330.145 63.12C330.145 67.92 329.985 75.12 329.665 84.72L329.425 99.36L329.665 114C335.105 113.68 339.185 113.36 341.905 113.04H342.385C344.145 113.04 345.985 113.84 347.905 115.44ZM419.714 148.32C420.834 150.4 421.154 152.48 420.674 154.56C419.234 157.92 417.634 160.48 415.874 162.24C413.634 164.16 411.154 165.6 408.434 166.56C405.714 167.52 402.994 168 400.274 168C395.154 168 390.514 166.56 386.354 163.68C382.194 160.8 377.634 156.8 372.674 151.68C368.674 147.36 365.794 142.96 364.034 138.48C362.914 134.8 362.354 129.84 362.354 123.6C362.354 117.2 362.514 111.84 362.834 107.52C363.154 103.2 363.954 99.04 365.234 95.04C366.674 90.4 368.914 86.32 371.954 82.8C374.994 78.96 378.834 76.64 383.474 75.84C384.114 75.68 384.994 75.6 386.114 75.6C387.394 75.6 388.674 75.92 389.954 76.56C391.714 77.36 392.994 79.04 393.794 81.6C393.954 82.08 394.034 82.72 394.034 83.52C394.034 85.12 393.634 86.56 392.834 87.84C392.354 88.8 391.634 89.68 390.674 90.48C389.874 91.12 388.994 91.52 388.034 91.68L386.114 92.16L385.394 92.64C385.394 92.48 385.394 92.4 385.394 92.4C385.554 92.4 385.634 92.4 385.634 92.4L385.154 92.64L384.434 93.12L385.154 92.88L384.194 93.6C384.354 93.6 384.434 93.6 384.434 93.6C384.434 93.44 384.434 93.36 384.434 93.36L384.194 93.84C384.194 93.84 383.794 94.24 382.994 95.04L383.714 94.32L382.034 96.96V97.2C381.874 97.36 381.554 97.92 381.074 98.88L381.554 97.92C380.914 99.68 380.274 102.32 379.634 105.84V105.6C379.154 108.48 378.914 112.88 378.914 118.8C378.914 119.92 378.834 121.6 378.674 123.84C378.674 126.08 378.754 128 378.914 129.6V129.36V130.08C379.074 130.4 379.154 130.88 379.154 131.52V130.8C379.474 132.24 379.954 133.68 380.594 135.12C380.914 135.76 381.314 136.4 381.794 137.04L381.314 136.32C383.234 138.72 385.234 140.96 387.314 143.04L392.354 147.6L392.114 147.36C393.394 148.64 395.314 149.84 397.874 150.96L399.554 151.44C400.994 151.44 402.034 151.36 402.674 151.2L404.114 150.48C404.434 150.16 404.594 150 404.594 150L404.834 149.76C405.314 148.32 406.514 146.8 408.434 145.2C409.554 144.56 410.834 144.24 412.274 144.24C413.554 144.24 414.434 144.32 414.914 144.48C416.994 144.96 418.594 146.24 419.714 148.32ZM387.314 91.68L386.594 91.92L387.314 91.68ZM385.634 92.4V92.16L386.114 91.92L385.634 92.4ZM385.154 92.64H385.394C385.394 92.64 385.314 92.64 385.154 92.64C385.154 92.64 385.154 92.72 385.154 92.88V92.64ZM383.714 94.32C383.714 94.32 383.874 94.16 384.194 93.84V93.6C384.194 93.76 384.034 94 383.714 94.32ZM382.034 97.2V96.96L381.554 97.92L382.034 97.2ZM379.154 108L379.394 106.8L379.154 108ZM379.154 130.8C379.154 130.48 379.074 130.24 378.914 130.08V129.6C379.074 129.92 379.154 130.32 379.154 130.8ZM405.314 149.28C404.994 149.6 404.834 149.76 404.834 149.76V150L405.314 149.28ZM404.354 150.72C404.514 150.72 404.594 150.56 404.594 150.24L404.354 150.72ZM403.874 150.72H404.114H403.874ZM403.394 150.96H403.634H403.394ZM399.794 151.44C399.954 151.6 400.274 151.68 400.754 151.68L402.194 151.44C401.554 151.44 401.074 151.52 400.754 151.68L399.794 151.44ZM497.941 153.36C498.101 153.84 498.181 154.64 498.181 155.76C498.181 157.52 497.621 159.12 496.501 160.56C495.541 161.84 494.101 162.8 492.181 163.44C491.221 163.76 490.501 163.92 490.021 163.92C488.261 163.92 486.581 163.36 484.981 162.24C483.381 160.96 482.421 159.44 482.101 157.68C479.061 145.84 475.781 135.76 472.261 127.44L472.741 128.16L471.301 125.04C470.661 125.2 469.701 125.6 468.421 126.24L470.341 125.28C468.581 125.92 466.421 127.12 463.861 128.88L463.381 129.36L462.901 129.6L463.141 129.36L459.061 132.96C459.701 138.4 460.501 147.36 461.461 159.84C461.621 162.08 460.821 164 459.061 165.6C457.461 167.04 455.541 167.84 453.301 168C450.901 168 448.901 167.2 447.301 165.6C446.021 164 445.221 162.08 444.901 159.84L443.461 141.84C441.541 120.72 439.141 99.52 436.261 78.24V78.48C434.981 68.56 433.941 61.2 433.141 56.4C432.821 55.44 432.661 54.72 432.661 54.24C432.661 53.76 432.821 53.04 433.141 52.08L433.861 49.92C434.981 48.16 436.661 46.88 438.901 46.08C439.221 45.92 439.781 45.84 440.581 45.84C442.181 45.84 443.781 46.24 445.381 47.04C446.181 47.52 446.901 48.24 447.541 49.2C448.341 50.16 448.821 51.12 448.981 52.08C450.581 62.32 451.701 70 452.341 75.12C454.421 91.28 456.021 104.16 457.141 113.76C458.261 112.96 458.901 112.56 459.061 112.56C460.981 111.44 463.461 110.32 466.501 109.2C467.141 109.04 468.261 108.72 469.861 108.24C471.461 107.76 472.901 107.52 474.181 107.52C479.141 107.52 482.741 110.16 484.981 115.44L488.581 123.84C492.901 134.72 496.021 144.56 497.941 153.36ZM436.261 79.2V78.48V79.2ZM436.261 79.2C436.421 79.36 436.501 79.76 436.501 80.4C436.501 79.76 436.421 79.36 436.261 79.2ZM470.341 122.4V122.64H470.581L470.341 122.4ZM475.861 123.84L474.901 124.08L475.861 123.84ZM472.501 123.84H472.741H472.501ZM474.661 124.32L474.421 124.08H474.181L474.661 124.32ZM471.781 126.24L472.261 127.44L471.781 126.24ZM463.381 129.36C463.381 129.36 463.541 129.2 463.861 128.88C463.541 129.2 463.301 129.36 463.141 129.36H463.381ZM512.164 18C512.484 15.6 513.364 13.68 514.804 12.24C516.244 10.8 518.164 9.99999 520.564 9.83999H521.044C522.964 9.83999 524.724 10.64 526.324 12.24C527.124 13.04 527.764 14 528.244 15.12C528.724 16.08 528.884 17.04 528.724 18C528.084 27.6 527.684 34.72 527.524 39.36C527.044 48.64 526.804 58 526.804 67.44C526.804 82.64 527.444 98.8 528.724 115.92C528.884 118.16 528.084 120.08 526.324 121.68C524.564 123.28 522.564 124.16 520.324 124.32C518.404 124.32 516.484 123.52 514.564 121.92C512.964 120.32 512.164 118.32 512.164 115.92C511.524 106.16 511.124 99.04 510.964 94.56C510.484 85.12 510.244 75.76 510.244 66.48C510.244 51.28 510.884 35.12 512.164 18ZM520.564 168C518.164 168 516.164 167.2 514.564 165.6C513.124 163.84 512.404 161.76 512.404 159.36C512.404 157.28 513.204 155.44 514.804 153.84C516.564 152.24 518.484 151.44 520.564 151.44C522.804 151.44 524.724 152.32 526.324 154.08C527.924 155.68 528.804 157.6 528.964 159.84C528.964 161.92 528.084 163.84 526.324 165.6C524.724 167.2 522.804 168 520.564 168Z" fill="#D2DE32"/>
<path d="M152.729 212.506C153.557 205.876 177.61 192.875 184.781 195.265C193.885 198.3 199.149 215.057 205.745 221.652C210.354 226.262 226.862 209.293 230.27 207.002C241.972 199.133 254.534 196.092 268.474 196.48C283.105 196.886 285.546 209.13 296.884 215.177C306.795 220.463 320.06 203.049 327.074 197.613C335.776 190.869 345.858 183.973 356.699 181.263C371.105 177.661 385.143 194.497 397.816 199.393C402.832 201.331 410.369 203.444 415.623 201.66C426.609 197.929 431.875 185.813 441.848 181.425C463.647 171.833 477.548 213.645 496.564 218.333C516.424 223.231 525.371 207.76 541.729 202.307" stroke="#D2DE32" stroke-width="11.7879" stroke-linecap="round"/>
</svg>
