<svg width="190" height="207" viewBox="0 0 190 207" fill="none" xmlns="http://www.w3.org/2000/svg">
<path fill-rule="evenodd" clip-rule="evenodd" d="M77.6615 0.607036C77.6673 0.608675 77.6698 0.609348 77.6695 0.609268C79.3415 1.05726 80.9394 1.57001 82.3444 2.02086L82.4125 2.04269C83.8885 2.51631 85.1623 2.92355 86.4445 3.26711L86.9883 3.4128L87.5044 3.63749C87.7401 3.74011 87.9701 3.84998 88.1912 3.96343L85.2801 9.63503L88.1912 3.96345C90.2723 5.03162 91.8172 6.55857 92.7957 7.63032C93.5702 8.47869 94.35 9.46157 94.8565 10.1C94.9811 10.257 95.0892 10.3933 95.1766 10.5015C95.3215 10.681 95.4585 10.8534 95.5779 11.004C95.61 11.0445 95.6402 11.0826 95.6688 11.1187C95.7528 11.2247 95.8239 11.3145 95.8946 11.403C95.9871 11.5188 96.0506 11.5969 96.0958 11.6511C96.1078 11.6655 96.1166 11.676 96.1224 11.6827C98.6995 14.4769 100.185 17.8073 101.123 19.9993C101.284 20.3773 101.496 20.8311 101.739 21.3504C102.914 23.8648 104.806 27.9152 105.176 32.3293C105.714 38.7291 104.722 45.4945 102.384 51.4787C100.43 56.4819 98.3481 61.7136 94.5241 66.959C92.7418 69.4039 90.7031 70.9588 89.0357 72.0712C88.1008 72.695 87.507 73.0587 87.0238 73.3546C86.4344 73.7156 86.0097 73.9757 85.3312 74.4841C85.1747 74.6014 84.9748 74.755 84.742 74.9339C83.9002 75.5806 82.6285 76.5578 81.4219 77.3434C79.8521 78.3656 77.4321 79.7396 74.5045 80.1839C71.1106 80.699 68.3225 79.238 67.311 78.6864C66.6237 78.3116 66.0154 77.9208 65.5859 77.6387C65.3447 77.4802 65.1852 77.3739 65.0639 77.293C64.9091 77.1897 64.8165 77.1279 64.6954 77.0523L68.6969 70.6463L64.6954 77.0523C61.798 75.2424 58.9939 72.5714 56.8651 69.5627C54.7983 66.6417 52.8092 62.6024 52.7994 58.0709C52.7943 55.7288 52.4867 53.4781 52.1077 50.705C51.9911 49.8515 51.8677 48.9485 51.7442 47.9782C51.7038 47.66 51.6414 47.2269 51.5691 46.7245C51.3902 45.4809 51.1501 43.8124 51.0289 42.4097C50.8431 40.2599 50.7711 37.4231 51.5437 34.5398C51.6847 34.0137 51.7551 33.6338 51.8574 33.0814C51.9483 32.5911 52.0644 31.965 52.2773 30.9802C52.5933 29.5188 53.1747 27.0929 54.5157 24.905C54.7465 24.5284 54.9392 23.9236 55.422 21.6127C55.4372 21.5401 55.4529 21.4647 55.469 21.3869C55.8528 19.5378 56.53 16.2754 58.4832 13.317C58.4792 13.3232 58.5086 13.2791 58.5969 13.1186C58.641 13.0384 58.6884 12.9505 58.7546 12.8268L58.7706 12.797C58.829 12.688 58.9043 12.5476 58.9818 12.4058C59.3081 11.8088 59.9203 10.717 60.8829 9.63145C61.7774 8.62278 62.7162 7.81015 63.3201 7.2903C63.3842 7.23511 63.445 7.1828 63.5028 7.13311C64.0904 6.62757 64.3636 6.39259 64.6108 6.14076C64.8483 5.89888 65.0895 5.61035 65.5928 5.00834C65.6398 4.95215 65.689 4.89322 65.7408 4.83135C66.2321 4.24396 67.0311 3.29037 67.9818 2.41836C68.9532 1.5273 70.1491 0.797123 71.5526 0.377788C72.9272 -0.0329223 74.1688 -0.0463709 75.1108 0.0481765C75.9968 0.137109 76.725 0.335434 77.0797 0.43595C77.2343 0.479761 77.3961 0.528312 77.4869 0.555566L77.5263 0.567385C77.5768 0.582456 77.6093 0.592063 77.6349 0.599471L77.6615 0.607036ZM72.961 14.9698C72.9635 14.9705 72.966 14.9712 72.9685 14.972C72.937 14.9639 72.9327 14.9618 72.961 14.9698ZM76.1534 15.9037C76.6794 16.0682 77.2232 16.2424 77.7971 16.4266L77.8699 16.4499C78.9429 16.7942 80.1278 17.1745 81.3713 17.534C81.4465 17.6089 81.5357 17.7017 81.6395 17.8154C81.8719 18.07 82.1272 18.3733 82.4319 18.7505C82.5835 18.9381 82.7349 19.1285 82.902 19.3387L82.9276 19.371C83.0816 19.5647 83.2528 19.7802 83.4228 19.9908C83.4623 20.0397 83.5241 20.1178 83.6019 20.2162C83.9366 20.6396 84.5694 21.4398 85.0132 21.9191C85.6705 22.6288 86.3183 23.7999 87.2336 25.9399C87.7717 27.1981 88.2229 28.1885 88.5972 29.0101C89.5412 31.0823 89.9961 32.0808 90.1231 33.5931C90.4663 37.6811 89.8168 42.1345 88.3139 45.9815C86.3475 51.0144 84.8641 54.5665 82.3173 58.0601C82.0104 58.4811 81.5944 58.8763 80.6521 59.5049C80.2761 59.7557 79.928 59.973 79.4816 60.2518C79.2827 60.3759 79.0644 60.5123 78.8154 60.6692C78.0857 61.1289 77.1973 61.7025 76.2733 62.3948C75.8356 62.7227 75.4624 63.0094 75.1247 63.2686C74.4441 63.7913 73.9084 64.2027 73.282 64.6168C73.1124 64.5048 72.9089 64.3717 72.6984 64.2402C71.6021 63.5554 70.2391 62.3109 69.1967 60.8376C68.0922 59.2766 67.906 58.2673 67.9055 58.0382C67.898 54.5759 67.4038 50.9996 67.0004 48.0807C66.902 47.3682 66.8089 46.695 66.7297 46.0721C66.6214 45.2208 66.5198 44.5283 66.4277 43.9002C66.2856 42.9322 66.166 42.117 66.079 41.1094C65.951 39.6281 66.0321 38.8341 66.1352 38.4496C66.3623 37.6018 66.5354 36.7415 66.6675 36.0638C66.7069 35.8616 66.7429 35.6746 66.777 35.4978C66.8709 35.0102 66.9496 34.6013 67.0423 34.1725C67.2713 33.1135 67.4266 32.7628 67.4203 32.7598C67.4197 32.7595 67.4173 32.763 67.413 32.7698C69.1331 29.9491 69.7719 26.8324 70.1332 25.0692C70.1599 24.9393 70.185 24.8168 70.2089 24.7023C70.6656 22.5166 70.8856 21.9493 71.0895 21.6404C71.4019 21.1672 71.6511 20.7294 71.8306 20.4033C71.9204 20.2401 72.0044 20.0835 72.0692 19.9627C72.1398 19.8308 72.1885 19.7398 72.2366 19.6519C72.2655 19.599 72.2895 19.5563 72.3086 19.5227C72.4693 19.3598 72.7192 19.1316 73.1753 18.7389C73.2312 18.6908 73.2929 18.638 73.3596 18.5809C73.8654 18.148 74.6583 17.4693 75.3898 16.7243C75.6534 16.4559 75.9114 16.1758 76.1534 15.9037ZM84.1464 11.8439L84.7422 10.6831L84.1464 11.8439C81.1053 17.2922 81.1039 17.2911 81.1038 17.2911C81.1038 17.291 81.1052 17.292 81.1081 17.2942M143.81 32.7747C141.997 32.4163 139.889 32.3663 138.403 32.6536C136.619 32.9986 134.669 34.1012 132.572 36.1909C130.48 38.2767 128.602 40.9902 126.979 43.8152C126.274 45.0433 125.912 46.4198 125.273 48.851C125.146 49.3351 125.008 49.861 124.854 50.4359L122.171 60.4477C120.802 65.5564 119.987 69.4022 120.122 73.7194C120.176 75.4788 120.269 76.5716 120.474 77.419C120.648 78.1366 120.852 78.4479 121.054 78.6662C121.206 78.8291 121.362 79.0019 121.514 79.1716C122.119 78.876 122.921 78.5601 123.888 78.3799L124.475 78.2704L125.073 78.2547C126.228 78.2244 127.063 78.0475 128.713 77.6982C129.154 77.6049 129.653 77.4993 130.231 77.381C130.89 77.2462 132.16 76.6126 133.674 75.328C134.63 74.5174 135.453 73.8458 136.184 73.2497C137.942 71.8155 139.166 70.8175 140.412 69.3691C141.541 68.0573 142.674 66.4764 143.773 64.7915C144.213 64.1175 144.374 63.4923 144.834 61.7135C144.974 61.174 145.14 60.5285 145.351 59.7434C146.18 56.6499 146.768 54.0093 147.042 51.2737C147.137 50.3144 147.234 49.4334 147.325 48.6113C147.636 45.7828 147.87 43.6515 147.721 41.4263C147.705 41.3699 147.641 41.1488 147.446 40.6932C147.302 40.3596 147.145 40.0238 146.926 39.5552L146.862 39.4205C146.635 38.9345 146.332 38.2853 146.055 37.6028C145.959 37.3684 145.867 37.1399 145.777 36.917C145.205 35.4992 144.725 34.3089 144.116 33.2617C143.998 33.0592 143.895 32.8989 143.81 32.7747ZM135.536 17.8221C139.777 17.002 144.66 17.3328 148.551 18.3754C153.308 19.6502 155.944 23.5544 157.171 25.6623C158.384 27.7464 159.311 30.0688 159.846 31.4092C159.922 31.5987 159.99 31.7686 160.049 31.9154C160.161 32.1904 160.309 32.5139 160.543 33.0134C160.565 33.0606 160.588 33.11 160.612 33.1612C160.814 33.5925 161.079 34.1579 161.327 34.7339C161.866 35.9899 162.617 37.9465 162.783 40.2591C163.053 44.0343 162.613 47.9267 162.274 50.9349C162.199 51.5945 162.129 52.2117 162.073 52.7758C161.681 56.7002 160.855 60.2465 159.942 63.6531C159.881 63.8829 159.812 64.1671 159.732 64.4956C159.251 66.4704 158.38 70.0481 156.424 73.0458C155.129 75.0312 153.59 77.2147 151.863 79.2219C149.666 81.7748 147.007 83.937 144.962 85.6C144.403 86.054 143.891 86.4708 143.446 86.8482C141.151 88.7943 137.558 91.3009 133.26 92.1805C132.972 92.2394 132.659 92.3072 132.323 92.38C131.074 92.6506 129.51 92.9895 127.759 93.1906C127.23 93.6049 126.231 94.3463 124.927 94.8911C123.391 95.5332 121.234 95.9836 118.801 95.3317C116.026 94.5881 114.05 93.1287 112.663 91.8245C111.855 91.0641 110.749 89.8096 110.239 89.231C110.114 89.0892 110.024 88.988 109.984 88.9445C105.326 83.9271 105.131 77.6691 105.024 74.2174L105.023 74.1893C104.816 67.5499 106.137 61.9231 107.58 56.5379L110.262 46.5262C110.344 46.2205 110.433 45.8734 110.529 45.4925C111.131 43.1243 112.065 39.45 113.88 36.2905C115.853 32.8568 118.502 28.8864 121.909 25.4912C125.311 22.1 129.834 18.9245 135.536 17.8221ZM19.8621 47.5401L20.7151 47.6289C21.0764 47.6665 21.432 47.7033 21.7822 47.7395C26.2846 48.2051 29.8822 48.5771 32.9296 49.475C36.7194 50.5915 39.4514 52.4122 42.6239 54.8172C51.2965 61.3921 56.3718 72.8346 57.3536 82.5474C57.8839 87.7932 57.6053 92.023 56.2067 97.2427C55.7781 98.8422 55.2766 100.394 54.8418 101.74L54.8212 101.804C54.3613 103.227 53.9744 104.429 53.6595 105.605C53.1412 107.539 52.1717 109.347 51.0923 110.895C54.2126 108.881 57.904 106.965 61.6904 105.996C63.1285 105.628 64.7464 105.047 66.2755 104.377C68.0422 103.603 69.7621 103.399 70.4502 103.317C70.498 103.311 70.5409 103.306 70.5784 103.301C70.736 103.282 70.853 103.266 70.9363 103.254C75.03 101.511 80.1529 101.081 82.8404 100.856L82.8601 100.854C87.2932 100.482 91.3135 100.746 95.8308 101.956C105.858 104.643 112.666 113.13 116.514 119.795C119.387 124.771 122.652 129.624 126.033 134.647C127.143 136.297 128.266 137.966 129.392 139.664C134.343 147.131 136.554 155.897 138.348 163.009C138.552 163.818 138.75 164.604 138.947 165.365C139.343 166.899 139.54 168.398 139.676 169.476C139.694 169.616 139.711 169.75 139.727 169.877C139.852 170.867 139.932 171.506 140.058 172.119C140.131 172.478 140.198 172.713 140.308 173.099C140.397 173.412 140.514 173.826 140.686 174.487C140.965 175.556 141.388 177.323 141.355 179.296C141.342 180.073 141.387 180.608 141.453 181.402C141.496 181.91 141.547 182.524 141.598 183.375C141.708 185.231 141.734 187.668 140.991 190.438C138.046 201.432 127.601 204.089 122.36 205.423C122.218 205.459 122.081 205.494 121.947 205.528C114.413 207.457 106.679 207.458 99.1574 205.443C95.1139 204.359 91.0803 202.11 88.0427 199.319C88.0271 199.308 87.9105 199.217 87.6148 199.009C87.5425 198.959 87.4481 198.893 87.3385 198.817C86.9895 198.575 86.4872 198.226 86.0602 197.91C85.4719 197.476 84.6403 196.83 83.8562 196.023C83.3516 195.503 82.5867 194.636 81.9645 193.435C81.2668 192.511 80.2961 191.421 79.2119 190.422C77.8554 189.171 76.7858 188.49 76.2691 188.269C75.4011 187.898 74.5929 187.541 73.8124 187.196C72.2218 186.492 70.7462 185.84 69.1136 185.228C66.761 184.348 64.9611 183.916 63.6211 183.875C61.173 183.8 58.6335 184.044 55.5675 184.378C55.3671 184.4 55.164 184.422 54.9583 184.445C52.1808 184.75 48.9325 185.106 45.6259 185.102C44.9513 185.101 44.2323 185.105 43.477 185.109C38.0213 185.139 30.6669 185.18 24.4229 183.507C19.1362 182.09 14.8396 179.137 11.9516 174.868C9.12923 170.696 7.99796 165.79 7.98738 160.901C7.95948 148.011 14.0142 138.795 22.6101 131.478C24.6472 129.744 26.828 128.246 28.6435 126.999C28.7962 126.894 28.9462 126.791 29.0934 126.69C31.1189 125.296 32.7111 124.166 34.0785 122.923C36.318 120.888 38.7566 119.27 40.8249 117.951C40.5536 118.009 40.4676 118.034 40.4371 118.044C39.0907 118.467 37.8055 118.678 37.0222 118.807L36.9921 118.812C36.0524 118.966 35.706 119.026 35.4093 119.109C33.0387 119.773 30.8628 119.68 29.5205 119.584C28.7337 119.527 28.254 119.48 27.9086 119.447C27.4697 119.404 27.2475 119.382 26.8875 119.388C23.4689 119.445 20.4904 118.277 18.2903 117.048C16.0458 115.794 14.1344 114.212 12.6847 112.775C10.5699 110.679 8.54349 108.371 6.73728 105.712L12.9441 101.496L6.73728 105.712C5.50145 103.892 4.91403 101.944 4.62106 100.962C4.52624 100.644 4.46443 100.429 4.41225 100.248C4.34876 100.028 4.29953 99.8575 4.22245 99.6098C4.17176 99.447 4.13239 99.3299 4.10103 99.2433C4.08583 99.2013 4.07402 99.1707 4.06561 99.1497C4.0572 99.1287 4.0531 99.1197 4.05361 99.1208L3.99329 98.9872C2.8518 96.4585 1.34436 93.1191 0.578597 89.377L7.97835 87.8628L0.578596 89.377C-0.0474749 86.3176 -0.0130378 82.8679 0.00964225 80.596C0.0158372 79.9754 0.0211548 79.4427 0.0118942 79.0298C-0.103851 73.8695 0.796393 67.3344 3.29045 62.0055C3.36604 61.844 3.45529 61.6494 3.55586 61.43C3.94631 60.5785 4.50733 59.355 5.10127 58.2553C5.86376 56.8435 7.03155 54.9369 8.77739 53.32C9.45028 52.6968 10.8411 51.5904 12.2642 50.6172C13.0045 50.1108 13.9083 49.5334 14.8571 49.0359C15.6149 48.6386 17.1674 47.8713 19.011 47.6447L19.8621 47.5401ZM95.0848 185.796C95.3054 185.958 95.5028 186.095 95.7593 186.273C95.9124 186.379 96.0865 186.5 96.2992 186.649C96.5533 186.828 96.858 187.045 97.1662 187.279C97.4673 187.509 97.8503 187.813 98.2421 188.176C99.5219 189.359 101.413 190.408 103.067 190.851C108.026 192.18 113.123 192.194 118.201 190.894C121.228 190.119 123.201 189.516 124.616 188.688C125.707 188.051 126.145 187.48 126.4 186.528C126.536 186.021 126.587 185.437 126.518 184.273C126.493 183.858 126.467 183.539 126.436 183.152C126.412 182.86 126.385 182.53 126.353 182.092C126.292 181.246 126.234 180.23 126.25 179.112C126.244 179.083 126.214 178.854 126.068 178.297C126.001 178.038 125.941 177.821 125.866 177.552C125.82 177.39 125.77 177.209 125.71 176.989C125.572 176.489 125.4 175.84 125.258 175.147C125.007 173.919 124.85 172.657 124.736 171.738C124.72 171.61 124.705 171.489 124.69 171.376C124.554 170.298 124.452 169.652 124.32 169.142C124.126 168.39 123.937 167.651 123.752 166.924C121.829 159.403 120.244 153.204 116.802 148.011C115.808 146.513 114.772 144.973 113.713 143.401C110.267 138.281 106.59 132.818 103.432 127.349C100.247 121.832 96.0915 117.665 91.921 116.548C89.2577 115.834 87.0021 115.666 84.1239 115.907C80.8453 116.183 78.1773 116.554 76.7963 117.178C75.0042 117.986 73.2565 118.195 72.5591 118.278C72.5134 118.284 72.4723 118.288 72.4359 118.293C72.2502 118.316 72.118 118.334 72.0291 118.347C70.0024 119.22 67.7173 120.047 65.4364 120.63C62.7537 121.317 59.2237 123.414 56.1381 125.836C54.1115 127.427 51.9011 128.821 50.0759 129.973C49.8016 130.146 49.5359 130.313 49.2809 130.475C47.1637 131.819 45.5545 132.906 44.2383 134.103C42.0206 136.118 39.6367 137.772 37.6573 139.134C37.5539 139.205 37.4515 139.275 37.3502 139.345C35.388 140.695 33.8207 141.773 32.4023 142.98C26.1281 148.322 23.0779 153.641 23.0935 160.868C23.0993 163.518 23.7097 165.289 24.4634 166.403C25.1516 167.421 26.2655 168.361 28.3326 168.915C32.4608 170.021 37.5641 170.01 43.3101 169.998C44.0768 169.996 44.8551 169.995 45.6439 169.996C48.0867 169.998 50.5591 169.729 53.5377 169.404L53.9318 169.361C56.928 169.035 60.447 168.664 64.0849 168.776C67.8713 168.892 71.489 169.988 74.4095 171.081C76.4656 171.851 78.6288 172.806 80.3914 173.585C81.0628 173.881 81.6761 174.152 82.2032 174.377C84.9695 175.559 87.5023 177.518 89.4522 179.316C91.1657 180.896 92.7812 182.679 94.0855 184.419C94.4662 184.835 94.8024 185.296 95.0848 185.796ZM21.1286 62.8611C21.023 62.93 20.9105 63.005 20.7918 63.0862C20.3407 63.3947 19.8978 63.7241 19.5371 64.0058C19.3588 64.145 19.214 64.2621 19.1109 64.3477C19.0809 64.3725 19.0577 64.3921 19.0406 64.4065C19.0404 64.4068 19.0403 64.407 19.0401 64.4072C19.0002 64.4552 18.7745 64.7271 18.3928 65.4339C18.055 66.0592 17.7841 66.649 17.4347 67.4094C17.296 67.7113 17.1449 68.0402 16.9723 68.4089C15.7266 71.0707 15.0349 75.1496 15.1143 78.6911C15.1473 80.1626 15.1354 81.2845 15.1255 82.2144C15.1074 83.9131 15.0962 84.9709 15.3781 86.3485C15.7684 88.2556 16.5849 90.1645 17.8226 92.907L10.9381 96.0139L17.8226 92.907C18.1961 93.7346 18.4602 94.523 18.6463 95.1211C18.7532 95.4645 18.8935 95.9466 18.9944 96.2932C19.0379 96.4426 19.0741 96.5669 19.0971 96.644C19.2249 97.0726 19.3057 97.2915 19.337 97.3752C20.4493 98.9882 21.7652 100.507 23.3187 102.046C24.0482 102.769 24.8831 103.427 25.6573 103.86C26.3391 104.241 26.6697 104.28 26.6745 104.284C27.5714 104.271 28.3953 104.327 29.0212 104.379C29.3986 104.41 29.6451 104.433 29.8557 104.453C30.1033 104.476 30.3013 104.495 30.604 104.516C31.1202 104.553 31.3532 104.543 31.4165 104.54C32.5513 104.228 33.6702 104.047 34.3583 103.935C34.4252 103.924 34.488 103.914 34.5464 103.905C35.3792 103.768 35.6921 103.7 35.9018 103.634C36.6576 103.396 37.3433 103.247 37.7775 103.155C37.8858 103.132 37.9637 103.115 38.0293 103.102C38.2448 102.86 38.4661 102.587 38.6665 102.304C38.8492 102.047 38.9744 101.837 39.0501 101.69C39.0699 101.652 39.0837 101.623 39.0925 101.604C39.509 100.061 39.9947 98.5581 40.4184 97.247L40.4466 97.1596C40.9054 95.7396 41.2954 94.5265 41.6152 93.3329C42.5122 89.9853 42.6813 87.6014 42.324 84.0667C41.6648 77.5457 38.1146 70.3552 33.4977 66.8551C30.7332 64.7593 29.7673 64.2915 28.6604 63.9654C27.2488 63.5495 25.408 63.3137 21.1286 62.8611ZM185.135 89.0968C179.846 81.6515 171.708 79.9856 164.764 80.9419C157.878 81.8901 151.223 85.4055 146.616 89.5278C146.008 90.0718 145.316 90.6211 144.42 91.3221C144.354 91.3735 144.287 91.4259 144.219 91.4793C143.42 92.1038 142.45 92.8617 141.514 93.6716C139.514 95.4022 137.094 97.8412 135.537 101.336C135.525 101.353 135.511 101.372 135.494 101.395C135.346 101.594 135.141 101.838 134.889 102.122C134.597 102.452 134.359 102.765 134.174 103.028C133.988 103.291 133.834 103.532 133.716 103.726C133.62 103.883 133.535 104.028 133.469 104.144C132.67 104.976 132.187 105.806 131.921 106.314C131.506 107.108 131.245 107.857 131.087 108.363C130.921 108.893 130.8 109.382 130.723 109.702C130.708 109.764 130.69 109.839 130.674 109.908C130.654 109.993 130.635 110.07 130.627 110.105C130.605 110.198 130.597 110.229 130.597 110.229L130.598 110.226C130.54 110.442 130.442 110.716 130.161 111.446L130.131 111.525C129.894 112.138 129.514 113.127 129.222 114.218L127.31 121.353C126.196 125.508 126.67 129.821 127.111 132.618C128.325 140.311 134.716 143.685 139.265 144.887C143.902 146.112 149.165 145.932 153.106 144.671C155.946 143.763 158.297 142.545 160.434 141.311C160.91 141.036 161.467 140.778 162.426 140.346L162.534 140.297C163.372 139.92 164.569 139.38 165.75 138.699C172.158 134.999 177.102 129.497 180.965 125.141C183.087 122.748 185.231 119.683 186.89 116.347C188.515 113.078 189.926 109.044 189.997 104.829C190.021 103.396 189.905 100.781 189.324 98.0017C188.845 95.7154 187.796 91.996 185.135 89.0968ZM166.825 95.9069C163.331 96.388 159.385 98.3731 156.689 100.785C155.66 101.706 154.597 102.541 153.726 103.222L153.592 103.326C152.723 104.006 152.037 104.542 151.399 105.095C150.073 106.242 149.558 106.962 149.318 107.525C148.529 109.371 147.188 111.004 146.488 111.809C146.446 111.882 146.395 111.973 146.369 112.017C146.232 112.257 145.947 112.75 145.566 113.273C145.496 113.369 145.416 113.476 145.326 113.59C145.325 113.595 145.323 113.6 145.322 113.606C145.291 113.735 145.244 113.932 145.189 114.136C144.906 115.193 144.53 116.168 144.3 116.765C144.286 116.801 144.273 116.835 144.261 116.868C143.988 117.577 143.88 117.878 143.813 118.128L141.901 125.263C141.665 126.143 141.655 127.67 141.97 129.846C142.18 129.963 142.547 130.129 143.124 130.282C143.996 130.512 145.056 130.63 146.133 130.608C147.231 130.585 148.068 130.422 148.504 130.283C149.885 129.841 151.181 129.21 152.881 128.229C154.074 127.54 155.277 126.998 156.12 126.618L156.218 126.574C157.182 126.14 157.731 125.885 158.197 125.616C162.193 123.309 165.653 119.64 169.662 115.119C170.957 113.659 172.333 111.693 173.363 109.621C174.427 107.481 174.874 105.728 174.893 104.575C174.902 104.025 174.844 102.56 174.538 101.096C174.388 100.381 174.214 99.8349 174.053 99.4711C174.015 99.3832 173.983 99.3195 173.96 99.2764L173.461 98.8107L172.966 98.0593C171.815 96.3118 170.062 95.4611 166.825 95.9069ZM145.505 112.872C145.511 112.853 145.511 112.855 145.503 112.876C145.504 112.875 145.504 112.874 145.505 112.872Z" fill="#016A70"/>
</svg>
