<svg width="132" height="42" viewBox="0 0 132 42" fill="none" xmlns="http://www.w3.org/2000/svg">
<path d="M19.1302 39.2725C18.6985 38.8839 17.896 38.4144 17.3118 38.3309C16.5401 38.2207 15.5528 38.0124 14.7659 38.1976C13.8317 38.4174 12.9714 38.8792 12.0422 39.127C11.1096 39.3757 10.0176 39.7089 9.05586 39.7089C7.85591 39.7089 7.09074 38.9647 6.78074 37.8177C6.36709 36.2872 6.76371 34.9951 7.63745 33.7282C8.07226 33.0977 8.64296 32.5681 9.05586 31.9258C9.48046 31.2654 10.1092 30.7383 10.5793 30.1114C10.9839 29.572 11.5551 28.9516 12.1513 28.6162C12.4233 28.4632 12.6994 28.2699 12.9434 28.0747C13.1374 27.9195 13.3798 27.8987 13.5697 27.7433C13.9404 27.4401 14.5348 27.2141 14.9841 27.0523C15.5281 26.8565 16.0147 26.7614 16.6005 26.7614C17.7589 26.7614 18.8515 27.501 19.6354 28.2848C20.5207 29.1702 21.5218 30.006 22.4601 30.8347C23.4529 31.7117 24.0746 32.9184 24.715 34.0514C24.8787 34.3411 24.9808 34.6801 25.1312 34.9809C25.2585 35.2354 25.4628 35.5029 25.5313 35.777C25.6564 36.2776 25.895 36.6646 25.895 37.1994C25.895 38.2538 25.0473 38.7696 24.2179 39.2361C23.3238 39.7391 22.3468 39.9999 21.3286 39.9999C20.8617 39.9999 20.341 39.8685 19.9304 39.6524C19.6963 39.5292 19.1699 39.4246 19.0575 39.1998" stroke="#D2DE32" stroke-width="2.38095" stroke-linecap="round"/>
<path d="M6.12797 21.6673C5.04048 21.2242 4.81532 21.2722 3.13573 21.5398C2.88457 21.6413 2.44583 22.2323 2.37056 22.3518C2.17535 22.6619 2.11772 23.1147 2.0542 23.4721C1.9325 24.1566 2.02781 24.997 2.22016 25.6555C2.35464 26.1158 2.4338 26.5754 2.65061 27.0091C2.85622 27.4203 3.14429 27.7755 3.43373 28.1293C3.61913 28.3559 3.74755 28.6858 3.96791 28.8761C4.28001 29.1456 4.61598 29.3716 4.97403 29.5762C5.39393 29.8162 5.99298 30.0341 6.48841 29.8926C6.81426 29.7995 7.18993 29.8034 7.49453 29.6229C7.71561 29.4919 7.96495 29.415 8.1843 29.2754C8.4044 29.1354 8.64384 29.0816 8.79109 28.8502C8.96013 28.5845 9.13856 28.1677 9.13856 27.8466C9.13856 27.3924 9.18524 26.9296 9.18524 26.4697C9.18524 25.7707 9.08442 25.2581 8.83776 24.6078C8.38173 23.4056 7.34509 22.1631 6.12797 21.6673Z" stroke="#D2DE32" stroke-width="2.38095" stroke-linecap="round"/>
<path d="M24.8217 22.2585C25.667 20.9658 27.6007 19.7189 28.9759 20.9412C29.5132 21.2275 29.8232 22.1524 29.899 22.4556C30.1043 23.2766 29.8057 24.3693 29.4426 25.0954C29.0245 25.9317 28.5718 26.8012 27.9023 27.4707C27.6837 27.6893 27.4204 27.8644 27.1996 28.0852C26.9527 28.3321 26.7129 28.5472 26.4191 28.7361C25.7168 29.1876 24.137 29.4593 23.7015 28.4794C23.5331 28.1006 23.3748 27.6552 23.3748 27.2399V26.0756C23.3748 25.849 23.4214 25.6296 23.4214 25.4118C23.4214 25.2865 23.3957 25.0226 23.4785 24.9191C23.5523 24.8268 23.5602 24.652 23.6185 24.5353C23.6844 24.4035 23.7712 24.2158 23.7922 24.0685C23.8939 23.3567 24.4426 22.8383 24.8217 22.2585Z" stroke="#D2DE32" stroke-width="2.38095" stroke-linecap="round"/>
<path d="M9.70127 12.0728C10.1883 12.0728 10.6597 12.1194 11.1456 12.1194C11.1586 12.1214 11.1732 12.124 11.189 12.1275C11.498 12.1941 11.8135 12.4501 12.069 12.6362C12.1689 12.7091 12.2606 12.7804 12.3229 12.8196C12.6419 13.0204 12.897 13.3206 13.1268 13.6131C13.4783 14.0605 13.8636 14.4392 14.0629 14.9926C14.3438 15.773 14.4477 16.6605 14.3559 17.4872C14.2621 18.3311 14.1699 19.0725 13.8632 19.8676C13.662 20.3892 13.2749 20.6617 12.9452 21.0812C12.6909 21.405 12.377 21.8655 11.9884 22.0355C11.7673 22.1322 11.4106 21.9777 11.1923 21.911C10.4825 21.6941 9.60402 21.0588 9.40825 20.3344C9.2567 19.7737 9.00801 19.2373 8.78849 18.7008C8.59184 18.2201 8.2984 17.647 8.2984 17.1138C8.2984 16.7391 8.20176 16.2251 8.30877 15.8639C8.48799 15.259 8.22548 14.5838 8.42805 13.9761C8.48384 13.8087 8.49846 13.633 8.57845 13.473C8.68972 13.2505 8.85349 13.0583 8.9752 12.8429C9.0915 12.6372 9.181 12.3862 9.30452 12.1921C9.39994 12.0421 9.5463 12.0728 9.70127 12.0728Z" stroke="#D2DE32" stroke-width="2.38095" stroke-linecap="round"/>
<path d="M18.8575 22.0044C19.1692 22.2001 19.4378 22.4349 19.8273 22.4349C20.115 22.4349 20.2285 22.0044 20.4238 21.9111C20.7749 21.807 21.0402 21.6547 21.3677 21.491C21.7243 21.3127 22.0305 20.9744 22.2545 20.6508C22.568 20.198 22.8919 19.8041 23.131 19.3076C23.2807 18.9967 23.4073 18.6556 23.5147 18.3274C23.6428 17.9361 23.6081 17.5309 23.6081 17.1242C23.6081 16.5939 23.5896 16.0941 23.5044 15.5735C23.4092 14.992 23.3458 14.3967 23.1517 13.8361C23.0438 13.5242 22.7675 13.2661 22.5709 13.0063C22.272 12.6114 21.7669 11.8861 21.2173 11.8861C20.7395 11.8861 20.1643 12.0035 19.734 12.2128C18.6533 12.7386 18.1123 14.0435 17.8203 15.143C17.7004 15.5946 17.7269 16.0808 17.7269 16.5433V18.177C17.7269 19.0332 17.7576 19.7978 18.007 20.6249C18.1702 21.1659 18.3582 21.6909 18.8575 22.0044Z" stroke="#D2DE32" stroke-width="2.38095" stroke-linecap="round"/>
<path d="M52.3851 12.5714C52.5756 12.8762 52.6708 13.1809 52.6708 13.4857C52.6708 13.6381 52.6327 13.8286 52.5565 14.0571C52.5184 14.5524 52.2327 14.9524 51.6994 15.2571C51.3184 15.4857 50.8041 15.5619 50.1565 15.4857L49.2422 15.3143H49.2994C48.9565 15.2762 48.4422 15.2571 47.7565 15.2571H47.6994L47.1851 15.3143H47.4708C47.0898 15.3905 46.8422 15.4667 46.7279 15.5429L46.4422 15.7143L46.0994 16.1143C46.0994 16.1143 46.0994 16.1333 46.0994 16.1714C46.0994 16.1714 46.0803 16.1714 46.0422 16.1714C46.0803 16.1714 46.0994 16.1714 46.0994 16.1714C46.0994 16.1333 46.0994 16.1143 46.0994 16.1143C45.9089 16.4571 45.7756 16.9333 45.6994 17.5429C45.6613 18.0381 45.6422 18.8 45.6422 19.8286C45.6041 20.1333 45.5851 20.6286 45.5851 21.3143L45.4708 25.6571H46.9565C47.5279 25.6571 48.0041 25.8667 48.3851 26.2857C48.766 26.7048 48.9565 27.2 48.9565 27.7714C48.9565 28.2667 48.747 28.7048 48.3279 29.0857C47.947 29.4286 47.4898 29.6 46.9565 29.6H45.4137L45.2422 38.0571C45.2041 38.6286 44.9756 39.1048 44.5565 39.4857C44.1756 39.8286 43.6994 40 43.1279 40C42.6327 40 42.1946 39.8095 41.8137 39.4286C41.4327 39.0095 41.2613 38.5524 41.2994 38.0571L41.4708 30.4571V29.6H39.5851C39.0137 29.6 38.5375 29.4095 38.1565 29.0286C37.7756 28.6095 37.5851 28.1143 37.5851 27.5429C37.5851 27.0476 37.7756 26.6095 38.1565 26.2286C38.5756 25.8476 39.0517 25.6571 39.5851 25.6571H41.5279L41.5851 23.6571C41.6232 22.9333 41.6422 21.8286 41.6422 20.3429C41.6422 20.0381 41.6422 19.6381 41.6422 19.1429C41.6803 18.6476 41.7375 18.0762 41.8137 17.4286C41.966 16.019 42.2518 14.9333 42.6708 14.1714C43.3565 13.0667 44.1565 12.3429 45.0708 12C46.0232 11.5429 47.0898 11.3143 48.2708 11.3143C49.2232 11.3905 50.1946 11.5048 51.1851 11.6571C51.6041 11.7714 52.0041 12.0762 52.3851 12.5714ZM47.6994 15.2571H47.7565C47.6803 15.2952 47.5851 15.3143 47.4708 15.3143L47.6994 15.2571ZM49.4137 15.3143C49.4898 15.3524 49.6041 15.3714 49.7565 15.3714L49.4137 15.3143ZM45.6994 17.4286C45.7375 17.3524 45.7565 17.2571 45.7565 17.1429C45.7565 17.2571 45.7375 17.3524 45.6994 17.4286ZM67.7824 36.1714C68.2015 36.2476 68.5443 36.4762 68.811 36.8571C69.0776 37.2381 69.211 37.6571 69.211 38.1143C69.211 38.3048 69.1919 38.4571 69.1538 38.5714C69.0396 39.0286 68.7348 39.4286 68.2396 39.7714C67.9729 39.9238 67.6491 40 67.2681 40C67.0015 40 66.811 39.981 66.6967 39.9429C64.7538 39.6 63.0205 39.1238 61.4967 38.5143C60.011 37.8667 58.7538 36.9524 57.7253 35.7714C56.5443 34.4762 55.8586 33.1429 55.6681 31.7714C55.63 31.4667 55.611 31.0476 55.611 30.5143C55.611 29.9429 55.63 29.5238 55.6681 29.2571C55.7824 28.5714 55.9919 27.8857 56.2967 27.2C56.8681 25.9048 57.7634 24.8762 58.9824 24.1143C60.2015 23.3143 61.4967 22.9143 62.8681 22.9143C64.5443 22.9143 65.9919 23.3333 67.211 24.1714C69.0015 25.3905 69.8967 26.8 69.8967 28.4C69.8967 29.0095 69.6872 29.581 69.2681 30.1143C68.8872 30.6095 68.3919 30.9524 67.7824 31.1429C67.3253 31.2571 66.811 31.3143 66.2396 31.3143C65.7062 31.3143 65.3634 31.3143 65.211 31.3143C64.1443 31.2762 62.5443 31.2571 60.411 31.2571C60.0681 31.2571 59.7634 31.181 59.4967 31.0286C59.5729 31.3333 59.6491 31.5429 59.7253 31.6571C59.9157 32.0762 60.1062 32.4381 60.2967 32.7429L60.1824 32.6286C60.2586 32.7048 60.2967 32.7429 60.2967 32.7429L60.4681 33.0286C60.4681 32.9905 60.43 32.9333 60.3538 32.8571L61.2681 33.7714C61.7634 34.1905 62.5062 34.6286 63.4967 35.0857C64.6396 35.4667 66.0681 35.8286 67.7824 36.1714ZM63.4396 26.9143C63.3253 26.8762 63.1157 26.8571 62.811 26.8571C62.5443 26.8571 62.3348 26.8762 62.1824 26.9143L62.7538 26.8L61.8395 26.9714L61.211 27.3143H63.7824C64.0491 27.3524 64.411 27.3714 64.8681 27.3714L64.5824 27.2L64.6967 27.2571L64.5253 27.2L64.2396 27.0286L64.4681 27.1429C64.011 26.9905 63.6681 26.9143 63.4396 26.9143ZM61.7253 27.0286C61.6872 27.0667 61.63 27.0857 61.5538 27.0857C61.5157 27.0857 61.4776 27.1048 61.4395 27.1429C61.4776 27.1048 61.5157 27.0857 61.5538 27.0857C61.63 27.0857 61.6872 27.0667 61.7253 27.0286ZM64.5824 27.2L64.4681 27.1429L64.5253 27.2H64.5824ZM66.811 27.3143H66.7538H66.811ZM66.011 28.0571V28.1143V28.1714V28.0571ZM66.0681 28.6286L66.011 28.5143L66.0681 28.6286ZM59.7253 29.2V29.0857V29.1429V29.2ZM59.4395 30.2286C59.4776 30.1524 59.4967 30.0571 59.4967 29.9429C59.4967 30.019 59.4776 30.0762 59.4395 30.1143V30.2286ZM59.4395 30.7429C59.4776 30.781 59.4967 30.8381 59.4967 30.9143C59.4967 30.8 59.4776 30.7048 59.4395 30.6286V30.7429ZM59.4967 31.0857V31.0286V31.0857ZM59.8395 32.0571L59.7824 31.8857L59.8395 32.0571ZM60.2967 32.7429L60.3538 32.8571L60.2967 32.7429ZM61.6681 34.1143L61.3824 33.8857L61.6681 34.1143ZM85.4842 27.4857C85.789 27.7524 85.9794 28.2095 86.0556 28.8571C86.0556 29.4286 85.8651 29.9048 85.4842 30.2857C85.1032 30.5905 84.6271 30.781 84.0556 30.8571C83.1413 30.9714 82.208 31.0286 81.2556 31.0286C81.3318 33.3905 81.4461 35.7333 81.5985 38.0571C81.6366 38.5905 81.4461 39.0476 81.0271 39.4286C80.6461 39.7714 80.189 39.9619 79.6556 40C79.0842 40 78.608 39.8095 78.2271 39.4286C77.9223 39.0476 77.7318 38.5905 77.6556 38.0571L77.3699 33.0286L77.3128 31.1429C76.1318 31.1429 75.2556 31.1238 74.6842 31.0857C74.1128 31.0476 73.6366 30.8571 73.2556 30.5143C72.9128 30.1333 72.7413 29.6571 72.7413 29.0857C72.7032 28.5905 72.8747 28.1524 73.2556 27.7714C73.6366 27.3524 74.0747 27.1429 74.5699 27.1429L77.1985 27.2V24.1714C77.1985 21.1619 77.2556 18.1524 77.3699 15.1429C77.3699 14.5714 77.5604 14.1143 77.9413 13.7714C78.3604 13.3905 78.8556 13.2 79.4271 13.2C79.8842 13.2 80.3032 13.3905 80.6842 13.7714C81.0651 14.1524 81.2556 14.5714 81.2556 15.0286C81.2556 16.1714 81.2175 17.8857 81.1413 20.1714L81.0842 23.6571L81.1413 27.1429C82.4366 27.0667 83.408 26.9905 84.0556 26.9143H84.1699C84.589 26.9143 85.0271 27.1048 85.4842 27.4857ZM102.582 35.3143C102.848 35.8095 102.924 36.3048 102.81 36.8C102.467 37.6 102.086 38.2095 101.667 38.6286C101.134 39.0857 100.543 39.4286 99.8958 39.6571C99.2482 39.8857 98.6006 40 97.9529 40C96.7339 40 95.6291 39.6571 94.6387 38.9714C93.6482 38.2857 92.5625 37.3333 91.3815 36.1143C90.4291 35.0857 89.7434 34.0381 89.3244 32.9714C89.0577 32.0952 88.9244 30.9143 88.9244 29.4286C88.9244 27.9048 88.9625 26.6286 89.0387 25.6C89.1148 24.5714 89.3053 23.581 89.6101 22.6286C89.9529 21.5238 90.4863 20.5524 91.2101 19.7143C91.9339 18.8 92.8482 18.2476 93.9529 18.0571C94.1053 18.019 94.3149 18 94.5815 18C94.8863 18 95.191 18.0762 95.4958 18.2286C95.9149 18.419 96.2196 18.819 96.4101 19.4286C96.4482 19.5429 96.4672 19.6952 96.4672 19.8857C96.4672 20.2667 96.372 20.6095 96.1815 20.9143C96.0672 21.1429 95.8958 21.3524 95.6672 21.5429C95.4768 21.6952 95.2672 21.7905 95.0387 21.8286L94.5815 21.9429L94.4101 22.0571C94.4101 22.019 94.4101 22 94.4101 22C94.4482 22 94.4672 22 94.4672 22L94.3529 22.0571L94.1815 22.1714L94.3529 22.1143L94.1244 22.2857C94.1625 22.2857 94.1815 22.2857 94.1815 22.2857C94.1815 22.2476 94.1815 22.2286 94.1815 22.2286L94.1244 22.3429C94.1244 22.3429 94.0291 22.4381 93.8387 22.6286L94.0101 22.4571L93.6101 23.0857V23.1429C93.572 23.181 93.4958 23.3143 93.3815 23.5429L93.4958 23.3143C93.3434 23.7333 93.191 24.3619 93.0387 25.2V25.1429C92.9244 25.8286 92.8672 26.8762 92.8672 28.2857C92.8672 28.5524 92.8482 28.9524 92.8101 29.4857C92.8101 30.019 92.8291 30.4762 92.8672 30.8571V30.8V30.9714C92.9053 31.0476 92.9244 31.1619 92.9244 31.3143V31.1429C93.0006 31.4857 93.1149 31.8286 93.2672 32.1714C93.3434 32.3238 93.4387 32.4762 93.5529 32.6286L93.4387 32.4571C93.8958 33.0286 94.372 33.5619 94.8672 34.0571L96.0672 35.1429L96.0101 35.0857C96.3149 35.3905 96.772 35.6762 97.3815 35.9429L97.7815 36.0571C98.1244 36.0571 98.372 36.0381 98.5244 36L98.8672 35.8286C98.9434 35.7524 98.9815 35.7143 98.9815 35.7143L99.0387 35.6571C99.1529 35.3143 99.4387 34.9524 99.8958 34.5714C100.162 34.419 100.467 34.3429 100.81 34.3429C101.115 34.3429 101.324 34.3619 101.439 34.4C101.934 34.5143 102.315 34.819 102.582 35.3143ZM94.8672 21.8286L94.6958 21.8857L94.8672 21.8286ZM94.4672 22V21.9429L94.5815 21.8857L94.4672 22ZM94.3529 22.0571H94.4101C94.4101 22.0571 94.391 22.0571 94.3529 22.0571C94.3529 22.0571 94.3529 22.0762 94.3529 22.1143V22.0571ZM94.0101 22.4571C94.0101 22.4571 94.0482 22.419 94.1244 22.3429V22.2857C94.1244 22.3238 94.0863 22.381 94.0101 22.4571ZM93.6101 23.1429V23.0857L93.4958 23.3143L93.6101 23.1429ZM92.9244 25.7143L92.9815 25.4286L92.9244 25.7143ZM92.9244 31.1429C92.9244 31.0667 92.9053 31.0095 92.8672 30.9714V30.8571C92.9053 30.9333 92.9244 31.0286 92.9244 31.1429ZM99.1529 35.5429C99.0768 35.619 99.0387 35.6571 99.0387 35.6571V35.7143L99.1529 35.5429ZM98.9244 35.8857C98.9625 35.8857 98.9815 35.8476 98.9815 35.7714L98.9244 35.8857ZM98.8101 35.8857H98.8672H98.8101ZM98.6958 35.9429H98.7529H98.6958ZM97.8387 36.0571C97.8768 36.0952 97.9529 36.1143 98.0672 36.1143L98.4101 36.0571C98.2577 36.0571 98.1434 36.0762 98.0672 36.1143L97.8387 36.0571ZM121.207 36.5143C121.245 36.6286 121.264 36.819 121.264 37.0857C121.264 37.5048 121.131 37.8857 120.864 38.2286C120.636 38.5333 120.293 38.7619 119.836 38.9143C119.607 38.9905 119.436 39.0286 119.321 39.0286C118.902 39.0286 118.502 38.8952 118.121 38.6286C117.74 38.3238 117.512 37.9619 117.436 37.5429C116.712 34.7238 115.931 32.3238 115.093 30.3429L115.207 30.5143L114.864 29.7714C114.712 29.8095 114.483 29.9048 114.178 30.0571L114.636 29.8286C114.216 29.981 113.702 30.2667 113.093 30.6857L112.978 30.8L112.864 30.8571L112.921 30.8L111.95 31.6571C112.102 32.9524 112.293 35.0857 112.521 38.0571C112.559 38.5905 112.369 39.0476 111.95 39.4286C111.569 39.7714 111.112 39.9619 110.578 40C110.007 40 109.531 39.8095 109.15 39.4286C108.845 39.0476 108.655 38.5905 108.578 38.0571L108.236 33.7714C107.778 28.7429 107.207 23.6952 106.521 18.6286V18.6857C106.216 16.3238 105.969 14.5714 105.778 13.4286C105.702 13.2 105.664 13.0286 105.664 12.9143C105.664 12.8 105.702 12.6286 105.778 12.4L105.95 11.8857C106.216 11.4667 106.616 11.1619 107.15 10.9714C107.226 10.9333 107.359 10.9143 107.55 10.9143C107.931 10.9143 108.312 11.0095 108.693 11.2C108.883 11.3143 109.055 11.4857 109.207 11.7143C109.397 11.9429 109.512 12.1714 109.55 12.4C109.931 14.8381 110.197 16.6667 110.35 17.8857C110.845 21.7333 111.226 24.8 111.493 27.0857C111.759 26.8952 111.912 26.8 111.95 26.8C112.407 26.5333 112.997 26.2667 113.721 26C113.874 25.9619 114.14 25.8857 114.521 25.7714C114.902 25.6571 115.245 25.6 115.55 25.6C116.731 25.6 117.588 26.2286 118.121 27.4857L118.978 29.4857C120.007 32.0762 120.75 34.419 121.207 36.5143ZM106.521 18.8571V18.6857V18.8571ZM106.521 18.8571C106.559 18.8952 106.578 18.9905 106.578 19.1429C106.578 18.9905 106.559 18.8952 106.521 18.8571ZM114.636 29.1429V29.2H114.693L114.636 29.1429ZM115.95 29.4857L115.721 29.5429L115.95 29.4857ZM115.15 29.4857H115.207H115.15ZM115.664 29.6L115.607 29.5429H115.55L115.664 29.6ZM114.978 30.0571L115.093 30.3429L114.978 30.0571ZM112.978 30.8C112.978 30.8 113.016 30.7619 113.093 30.6857C113.016 30.7619 112.959 30.8 112.921 30.8H112.978ZM124.594 4.28571C124.67 3.71428 124.879 3.25714 125.222 2.91428C125.565 2.57142 126.022 2.38095 126.594 2.34285H126.708C127.165 2.34285 127.584 2.53333 127.965 2.91428C128.155 3.10476 128.308 3.33333 128.422 3.6C128.536 3.82857 128.575 4.05714 128.536 4.28571C128.384 6.57143 128.289 8.26666 128.251 9.37143C128.136 11.5809 128.079 13.8095 128.079 16.0571C128.079 19.6762 128.232 23.5238 128.536 27.6C128.575 28.1333 128.384 28.5905 127.965 28.9714C127.546 29.3524 127.07 29.5619 126.536 29.6C126.079 29.6 125.622 29.4095 125.165 29.0286C124.784 28.6476 124.594 28.1714 124.594 27.6C124.441 25.2762 124.346 23.5809 124.308 22.5143C124.194 20.2667 124.136 18.0381 124.136 15.8286C124.136 12.2095 124.289 8.3619 124.594 4.28571ZM126.594 40C126.022 40 125.546 39.8095 125.165 39.4286C124.822 39.0095 124.651 38.5143 124.651 37.9429C124.651 37.4476 124.841 37.0095 125.222 36.6286C125.641 36.2476 126.098 36.0571 126.594 36.0571C127.127 36.0571 127.584 36.2667 127.965 36.6857C128.346 37.0667 128.555 37.5238 128.594 38.0571C128.594 38.5524 128.384 39.0095 127.965 39.4286C127.584 39.8095 127.127 40 126.594 40Z" fill="#D2DE32"/>
</svg>
