<svg width="164" height="257" viewBox="0 0 164 257" fill="none" xmlns="http://www.w3.org/2000/svg">
<path d="M99.2453 155.064C96.8795 152.935 92.4824 150.362 89.2809 149.905C85.0528 149.301 79.6426 148.16 75.3308 149.174C70.2119 150.379 65.4978 152.909 60.4064 154.267C55.2963 155.63 49.3124 157.456 44.0427 157.456C37.4675 157.456 33.2748 153.378 31.5761 147.093C29.3095 138.706 31.4828 131.626 36.2704 124.684C38.653 121.229 41.7802 118.328 44.0427 114.808C46.3692 111.189 49.8143 108.301 52.3906 104.866C54.6075 101.91 57.7374 98.5106 61.0042 96.673C62.4943 95.8348 64.0076 94.7752 65.3443 93.7058C66.4073 92.8555 67.7356 92.7417 68.7764 91.8901C70.8074 90.2284 74.0645 88.99 76.5265 88.1036C79.5076 87.0305 82.1736 86.5093 85.3837 86.5093C91.7308 86.5093 97.718 90.5621 102.013 94.8573C106.864 99.7085 112.35 104.288 117.491 108.83C122.931 113.635 126.338 120.247 129.847 126.455C130.744 128.043 131.304 129.9 132.128 131.548C132.825 132.943 133.944 134.409 134.32 135.911C135.006 138.653 136.313 140.774 136.313 143.705C136.313 149.482 131.668 152.309 127.123 154.865C122.224 157.621 116.87 159.05 111.291 159.05C108.733 159.05 105.88 158.33 103.63 157.146C102.347 156.471 99.4627 155.898 98.8467 154.666" stroke="#D2DE32" stroke-width="10" stroke-linecap="round"/>
<path d="M27.9993 58.5961C22.0404 56.1685 20.8066 56.4312 11.6033 57.8976C10.227 58.4539 7.82295 61.6922 7.4105 62.3473C6.34084 64.0462 6.02509 66.5276 5.67701 68.4856C5.01017 72.2365 5.53242 76.8417 6.58638 80.4495C7.32328 82.972 7.75705 85.4905 8.94506 87.8666C10.0717 90.1198 11.6502 92.0664 13.2362 94.0048C14.2521 95.2465 14.9558 97.0542 16.1632 98.097C17.8734 99.574 19.7143 100.812 21.6763 101.933C23.9771 103.248 27.2596 104.443 29.9743 103.667C31.7598 103.157 33.8183 103.178 35.4874 102.189C36.6988 101.471 38.065 101.05 39.2669 100.285C40.473 99.5177 41.785 99.2229 42.5918 97.9549C43.5181 96.4994 44.4958 94.2155 44.4958 92.4561C44.4958 89.967 44.7516 87.431 44.7516 84.9111C44.7516 81.081 44.1992 78.2724 42.8476 74.7091C40.3488 68.1212 34.6685 61.3132 27.9993 58.5961Z" stroke="#D2DE32" stroke-width="10" stroke-linecap="round"/>
<path d="M130.432 61.8358C135.063 54.7521 145.659 47.9196 153.194 54.6176C156.139 56.1863 157.837 61.2542 158.253 62.9156C159.377 67.4143 157.741 73.4019 155.752 77.3803C153.461 81.9629 150.98 86.7274 147.312 90.3957C146.114 91.5936 144.671 92.5532 143.461 93.7633C142.108 95.116 140.794 96.2948 139.184 97.3297C135.336 99.8034 126.68 101.293 124.293 95.923C123.371 93.8474 122.503 91.4067 122.503 89.1311V82.7513C122.503 81.5099 122.759 80.3076 122.759 79.1138C122.759 78.4274 122.618 76.9813 123.071 76.4141C123.476 75.9083 123.519 74.9507 123.839 74.3112C124.2 73.5892 124.675 72.5603 124.791 71.7536C125.348 67.8531 128.355 65.0125 130.432 61.8358Z" stroke="#D2DE32" stroke-width="10" stroke-linecap="round"/>
<path d="M47.5792 6.02318C50.2481 6.02318 52.8311 6.27894 55.4936 6.27894C55.5648 6.28961 55.6446 6.30416 55.7311 6.32281C57.4243 6.68796 59.1533 8.0905 60.5531 9.11066C61.1007 9.50979 61.603 9.90037 61.9444 10.1154C63.6925 11.216 65.09 12.8607 66.3492 14.4633C68.2757 16.9151 70.3869 18.9899 71.4786 22.0224C73.0181 26.2987 73.5876 31.1615 73.0843 35.6915C72.5704 40.3159 72.0652 44.3781 70.3846 48.7353C69.2823 51.593 67.1608 53.0862 65.3546 55.3851C63.9607 57.1591 62.2407 59.6824 60.1115 60.6139C58.9 61.144 56.9455 60.2974 55.7493 59.9319C51.8601 58.7435 47.0463 55.262 45.9736 51.2929C45.1432 48.2205 43.7805 45.2815 42.5777 42.3412C41.5001 39.7072 39.8922 36.5672 39.8922 33.6454C39.8922 31.5923 39.3626 28.7757 39.949 26.7967C40.931 23.4823 39.4926 19.7826 40.6026 16.4525C40.9083 15.5354 40.9884 14.5726 41.4267 13.696C42.0364 12.4766 42.9338 11.4232 43.6007 10.2432C44.238 9.11575 44.7284 7.74041 45.4052 6.67679C45.928 5.85522 46.7301 6.02318 47.5792 6.02318Z" stroke="#D2DE32" stroke-width="10" stroke-linecap="round"/>
<path d="M97.751 60.4433C99.4586 61.5155 100.931 62.802 103.065 62.802C104.641 62.802 105.263 60.4433 106.333 59.9318C108.257 59.3617 109.711 58.5271 111.505 57.6299C113.459 56.6528 115.137 54.7995 116.365 53.0262C118.082 50.5451 119.857 48.3865 121.167 45.666C121.988 43.9624 122.682 42.0935 123.27 40.295C123.972 38.1512 123.782 35.9306 123.782 33.7021C123.782 30.7961 123.68 28.0575 123.213 25.2051C122.692 22.0186 122.344 18.7568 121.281 15.6851C120.689 13.9761 119.176 12.5619 118.098 11.1383C116.461 8.9743 113.693 5 110.681 5C108.063 5 104.912 5.64324 102.554 6.79033C96.632 9.67109 93.6678 16.8215 92.0674 22.8464C91.4102 25.3205 91.5559 27.985 91.5559 30.5193V39.4709C91.5559 44.1623 91.7237 48.3521 93.0905 52.8841C93.9845 55.8487 95.0151 58.7254 97.751 60.4433Z" stroke="#D2DE32" stroke-width="10" stroke-linecap="round"/>
<path d="M28.5493 187.553C28.8652 188.059 29.0232 188.564 29.0232 189.07C29.0232 189.323 28.96 189.639 28.8336 190.018C28.7704 190.839 28.2965 191.503 27.4119 192.008C26.78 192.387 25.9269 192.514 24.8527 192.387L23.3361 192.103H23.4309C22.8622 192.04 22.0091 192.008 20.8717 192.008H20.7769L19.9239 192.103H20.3978C19.7659 192.229 19.3551 192.356 19.1656 192.482L18.6916 192.766L18.1229 193.43C18.1229 193.43 18.1229 193.462 18.1229 193.525C18.1229 193.525 18.0913 193.525 18.0282 193.525C18.0913 193.525 18.1229 193.525 18.1229 193.525C18.1229 193.462 18.1229 193.43 18.1229 193.43C17.807 193.999 17.5858 194.789 17.4594 195.8C17.3963 196.621 17.3647 197.885 17.3647 199.591C17.3015 200.096 17.2699 200.918 17.2699 202.055L17.0803 209.259H19.5447C20.4926 209.259 21.2824 209.607 21.9143 210.302C22.5462 210.997 22.8622 211.818 22.8622 212.766C22.8622 213.588 22.5146 214.314 21.8195 214.946C21.1876 215.515 20.4294 215.799 19.5447 215.799H16.9855L16.7012 229.827C16.638 230.775 16.2588 231.565 15.5637 232.197C14.9318 232.766 14.142 233.05 13.1941 233.05C12.3727 233.05 11.646 232.734 11.0141 232.102C10.3822 231.407 10.0978 230.649 10.161 229.827L10.4454 217.221V215.799H7.31747C6.36962 215.799 5.57975 215.483 4.94785 214.851C4.31595 214.156 4 213.335 4 212.387C4 211.565 4.31595 210.839 4.94785 210.207C5.64294 209.575 6.43281 209.259 7.31747 209.259H10.5402L10.6349 205.942C10.6981 204.741 10.7297 202.908 10.7297 200.444C10.7297 199.938 10.7297 199.275 10.7297 198.454C10.7929 197.632 10.8877 196.684 11.0141 195.61C11.2668 193.272 11.7408 191.471 12.4358 190.207C13.5733 188.375 14.9003 187.174 16.4168 186.605C17.9966 185.847 19.7659 185.468 21.7248 185.468C23.3045 185.594 24.9159 185.784 26.5588 186.037C27.2539 186.226 27.9174 186.732 28.5493 187.553ZM20.7769 192.008H20.8717C20.7453 192.071 20.5873 192.103 20.3978 192.103L20.7769 192.008ZM23.6205 192.103C23.7468 192.166 23.9364 192.198 24.1892 192.198L23.6205 192.103ZM17.4594 195.61C17.5226 195.484 17.5542 195.326 17.5542 195.136C17.5542 195.326 17.5226 195.484 17.4594 195.61ZM54.0893 226.699C54.7844 226.826 55.3531 227.205 55.7955 227.837C56.2378 228.469 56.459 229.164 56.459 229.922C56.459 230.238 56.4274 230.491 56.3642 230.68C56.1746 231.439 55.6691 232.102 54.8476 232.671C54.4053 232.924 53.8682 233.05 53.2363 233.05C52.7939 233.05 52.478 233.018 52.2884 232.955C49.0657 232.386 46.1906 231.597 43.663 230.586C41.1986 229.511 39.1133 227.995 37.4072 226.036C35.4483 223.887 34.3109 221.676 33.995 219.401C33.9318 218.895 33.9002 218.2 33.9002 217.316C33.9002 216.368 33.9318 215.673 33.995 215.23C34.1845 214.093 34.5321 212.956 35.0376 211.818C35.9854 209.67 37.4704 207.964 39.4925 206.7C41.5145 205.373 43.663 204.709 45.9378 204.709C48.7182 204.709 51.1194 205.404 53.1415 206.795C56.1114 208.817 57.5964 211.155 57.5964 213.809C57.5964 214.82 57.2488 215.768 56.5537 216.652C55.9218 217.474 55.1004 218.042 54.0893 218.358C53.3311 218.548 52.478 218.643 51.5301 218.643C50.6455 218.643 50.0768 218.643 49.824 218.643C48.0547 218.58 45.4007 218.548 41.8621 218.548C41.2934 218.548 40.7879 218.422 40.3455 218.169C40.4719 218.674 40.5983 219.022 40.7247 219.211C41.0406 219.906 41.3566 220.507 41.6725 221.012L41.483 220.823C41.6093 220.949 41.6725 221.012 41.6725 221.012L41.9569 221.486C41.9569 221.423 41.8937 221.328 41.7673 221.202L43.2839 222.718C44.1053 223.414 45.3375 224.14 46.9805 224.898C48.8762 225.53 51.2458 226.131 54.0893 226.699ZM46.8857 211.344C46.6961 211.281 46.3486 211.249 45.8431 211.249C45.4007 211.249 45.0532 211.281 44.8004 211.344L45.7483 211.155L44.2317 211.439L43.1891 212.008H47.4544C47.8967 212.071 48.497 212.103 49.2553 212.103L48.7814 211.818L48.971 211.913L48.6866 211.818L48.2127 211.534L48.5918 211.723C47.8335 211.471 47.2648 211.344 46.8857 211.344ZM44.0421 211.534C43.979 211.597 43.8842 211.629 43.7578 211.629C43.6946 211.629 43.6314 211.66 43.5682 211.723C43.6314 211.66 43.6946 211.629 43.7578 211.629C43.8842 211.629 43.979 211.597 44.0421 211.534ZM48.7814 211.818L48.5918 211.723L48.6866 211.818H48.7814ZM52.478 212.008H52.3832H52.478ZM51.151 213.24V213.335V213.43V213.24ZM51.2458 214.188L51.151 213.998L51.2458 214.188ZM40.7247 215.136V214.946V215.041V215.136ZM40.2508 216.842C40.3139 216.715 40.3455 216.557 40.3455 216.368C40.3455 216.494 40.3139 216.589 40.2508 216.652V216.842ZM40.2508 217.695C40.3139 217.758 40.3455 217.853 40.3455 217.979C40.3455 217.79 40.3139 217.632 40.2508 217.505V217.695ZM40.3455 218.264V218.169V218.264ZM40.9142 219.875L40.8195 219.591L40.9142 219.875ZM41.6725 221.012L41.7673 221.202L41.6725 221.012ZM43.9474 223.287L43.4734 222.908L43.9474 223.287ZM83.4519 212.292C83.9574 212.734 84.2734 213.493 84.3997 214.567C84.3997 215.515 84.0838 216.305 83.4519 216.937C82.82 217.442 82.0301 217.758 81.0823 217.884C79.5657 218.074 78.0176 218.169 76.4378 218.169C76.5642 222.087 76.7538 225.973 77.0065 229.827C77.0697 230.712 76.7538 231.47 76.0587 232.102C75.4268 232.671 74.6685 232.987 73.7838 233.05C72.836 233.05 72.0461 232.734 71.4142 232.102C70.9087 231.47 70.5928 230.712 70.4664 229.827L69.9925 221.486L69.8977 218.358C67.9388 218.358 66.4854 218.327 65.5376 218.264C64.5897 218.2 63.7998 217.884 63.1679 217.316C62.5992 216.684 62.3149 215.894 62.3149 214.946C62.2517 214.125 62.536 213.398 63.1679 212.766C63.7998 212.071 64.5265 211.723 65.348 211.723L69.7081 211.818V206.795C69.7081 201.803 69.8029 196.811 69.9925 191.819C69.9925 190.871 70.3084 190.112 70.9403 189.544C71.6354 188.912 72.4569 188.596 73.4047 188.596C74.163 188.596 74.8581 188.912 75.49 189.544C76.1219 190.176 76.4378 190.871 76.4378 191.629C76.4378 193.525 76.3746 196.368 76.2482 200.16L76.1535 205.942L76.2482 211.723C78.3967 211.597 80.008 211.471 81.0823 211.344H81.2718C81.9669 211.344 82.6936 211.66 83.4519 212.292ZM111.812 225.278C112.254 226.099 112.381 226.921 112.191 227.742C111.622 229.069 110.99 230.08 110.295 230.775C109.411 231.533 108.431 232.102 107.357 232.481C106.283 232.86 105.208 233.05 104.134 233.05C102.112 233.05 100.28 232.481 98.6367 231.344C96.9938 230.206 95.1929 228.627 93.234 226.605C91.6542 224.898 90.5168 223.161 89.8217 221.391C89.3794 219.938 89.1582 217.979 89.1582 215.515C89.1582 212.987 89.2214 210.87 89.3478 209.164C89.4742 207.458 89.7901 205.815 90.2957 204.235C90.8644 202.403 91.749 200.792 92.9496 199.401C94.1502 197.885 95.6668 196.969 97.4993 196.653C97.7521 196.589 98.0996 196.558 98.5419 196.558C99.0475 196.558 99.553 196.684 100.058 196.937C100.754 197.253 101.259 197.916 101.575 198.927C101.638 199.117 101.67 199.37 101.67 199.686C101.67 200.318 101.512 200.886 101.196 201.392C101.006 201.771 100.722 202.119 100.343 202.434C100.027 202.687 99.6793 202.845 99.3002 202.908L98.5419 203.098L98.2576 203.288C98.2576 203.224 98.2576 203.193 98.2576 203.193C98.3208 203.193 98.3524 203.193 98.3524 203.193L98.1628 203.288L97.8784 203.477L98.1628 203.382L97.7837 203.667C97.8468 203.667 97.8784 203.667 97.8784 203.667C97.8784 203.604 97.8784 203.572 97.8784 203.572L97.7837 203.761C97.7837 203.761 97.6257 203.919 97.3097 204.235L97.5941 203.951L96.9306 204.994V205.088C96.8674 205.152 96.741 205.373 96.5514 205.752L96.741 205.373C96.4883 206.068 96.2355 207.111 95.9827 208.501V208.406C95.7932 209.543 95.6984 211.281 95.6984 213.619C95.6984 214.061 95.6668 214.725 95.6036 215.61C95.6036 216.494 95.6352 217.253 95.6984 217.884V217.79V218.074C95.7616 218.2 95.7932 218.39 95.7932 218.643V218.358C95.9196 218.927 96.1091 219.496 96.3619 220.064C96.4883 220.317 96.6462 220.57 96.8358 220.823L96.6462 220.538C97.4045 221.486 98.1944 222.371 99.0159 223.192L101.006 224.993L100.912 224.898C101.417 225.404 102.175 225.878 103.186 226.32L103.85 226.51C104.419 226.51 104.829 226.478 105.082 226.415L105.651 226.131C105.777 226.004 105.84 225.941 105.84 225.941L105.935 225.846C106.125 225.278 106.599 224.677 107.357 224.045C107.799 223.793 108.305 223.666 108.873 223.666C109.379 223.666 109.727 223.698 109.916 223.761C110.738 223.951 111.369 224.456 111.812 225.278ZM99.0159 202.908L98.7315 203.003L99.0159 202.908ZM98.3524 203.193V203.098L98.5419 203.003L98.3524 203.193ZM98.1628 203.288H98.2576C98.2576 203.288 98.226 203.288 98.1628 203.288C98.1628 203.288 98.1628 203.319 98.1628 203.382V203.288ZM97.5941 203.951C97.5941 203.951 97.6573 203.888 97.7837 203.761V203.667C97.7837 203.73 97.7205 203.825 97.5941 203.951ZM96.9306 205.088V204.994L96.741 205.373L96.9306 205.088ZM95.7932 209.354L95.888 208.88L95.7932 209.354ZM95.7932 218.358C95.7932 218.232 95.7616 218.137 95.6984 218.074V217.884C95.7616 218.011 95.7932 218.169 95.7932 218.358ZM106.125 225.657C105.998 225.783 105.935 225.846 105.935 225.846V225.941L106.125 225.657ZM105.746 226.225C105.809 226.225 105.84 226.162 105.84 226.036L105.746 226.225ZM105.556 226.225H105.651H105.556ZM105.366 226.32H105.461H105.366ZM103.945 226.51C104.008 226.573 104.134 226.605 104.324 226.605L104.893 226.51C104.64 226.51 104.45 226.541 104.324 226.605L103.945 226.51ZM142.706 227.268C142.77 227.458 142.801 227.774 142.801 228.216C142.801 228.911 142.58 229.543 142.138 230.112C141.759 230.617 141.19 230.996 140.432 231.249C140.053 231.375 139.768 231.439 139.579 231.439C138.883 231.439 138.22 231.217 137.588 230.775C136.956 230.27 136.577 229.669 136.451 228.974C135.25 224.298 133.955 220.317 132.565 217.031L132.754 217.316L132.185 216.084C131.933 216.147 131.553 216.305 131.048 216.557L131.806 216.178C131.111 216.431 130.258 216.905 129.247 217.6L129.057 217.79L128.868 217.884L128.963 217.79L127.351 219.211C127.604 221.36 127.92 224.898 128.299 229.827C128.362 230.712 128.046 231.47 127.351 232.102C126.719 232.671 125.961 232.987 125.077 233.05C124.129 233.05 123.339 232.734 122.707 232.102C122.201 231.47 121.885 230.712 121.759 229.827L121.19 222.718C120.432 214.377 119.484 206.005 118.347 197.6V197.695C117.841 193.777 117.431 190.871 117.115 188.975C116.988 188.596 116.925 188.312 116.925 188.122C116.925 187.932 116.988 187.648 117.115 187.269L117.399 186.416C117.841 185.721 118.505 185.215 119.389 184.899C119.516 184.836 119.737 184.805 120.053 184.805C120.685 184.805 121.317 184.962 121.949 185.278C122.265 185.468 122.549 185.752 122.802 186.131C123.118 186.511 123.307 186.89 123.37 187.269C124.002 191.313 124.445 194.346 124.697 196.368C125.519 202.75 126.151 207.837 126.593 211.629C127.035 211.313 127.288 211.155 127.351 211.155C128.11 210.712 129.089 210.27 130.29 209.828C130.542 209.765 130.985 209.638 131.617 209.449C132.249 209.259 132.817 209.164 133.323 209.164C135.282 209.164 136.703 210.207 137.588 212.292L139.01 215.61C140.716 219.906 141.948 223.793 142.706 227.268ZM118.347 197.98V197.695V197.98ZM118.347 197.98C118.41 198.043 118.442 198.201 118.442 198.454C118.442 198.201 118.41 198.043 118.347 197.98ZM131.806 215.041V215.136H131.901L131.806 215.041ZM133.986 215.61L133.607 215.704L133.986 215.61ZM132.659 215.61H132.754H132.659ZM133.512 215.799L133.418 215.704H133.323L133.512 215.799ZM132.375 216.557L132.565 217.031L132.375 216.557ZM129.057 217.79C129.057 217.79 129.121 217.726 129.247 217.6C129.121 217.726 129.026 217.79 128.963 217.79H129.057ZM148.324 173.809C148.45 172.862 148.798 172.103 149.367 171.535C149.935 170.966 150.694 170.65 151.641 170.587H151.831C152.589 170.587 153.284 170.903 153.916 171.535C154.232 171.851 154.485 172.23 154.675 172.672C154.864 173.051 154.927 173.43 154.864 173.809C154.611 177.601 154.453 180.413 154.39 182.245C154.201 185.91 154.106 189.607 154.106 193.335C154.106 199.338 154.359 205.72 154.864 212.482C154.927 213.366 154.611 214.125 153.916 214.757C153.221 215.388 152.431 215.736 151.547 215.799C150.788 215.799 150.03 215.483 149.272 214.851C148.64 214.219 148.324 213.43 148.324 212.482C148.071 208.627 147.913 205.815 147.85 204.046C147.66 200.318 147.566 196.621 147.566 192.956C147.566 186.953 147.818 180.571 148.324 173.809ZM151.641 233.05C150.694 233.05 149.904 232.734 149.272 232.102C148.703 231.407 148.419 230.586 148.419 229.638C148.419 228.816 148.735 228.09 149.367 227.458C150.062 226.826 150.82 226.51 151.641 226.51C152.526 226.51 153.284 226.857 153.916 227.552C154.548 228.184 154.896 228.943 154.959 229.827C154.959 230.649 154.611 231.407 153.916 232.102C153.284 232.734 152.526 233.05 151.641 233.05Z" fill="#D2DE32"/>
<path d="M6.36961 250.627C6.69692 248.008 16.1961 242.874 19.0283 243.818C22.6239 245.017 24.7029 251.634 27.3076 254.239C29.1281 256.06 35.6477 249.358 36.9934 248.453C41.6151 245.346 46.5764 244.145 52.0815 244.298C57.8601 244.458 58.8239 249.294 63.3017 251.682C67.216 253.769 72.4547 246.892 75.2252 244.745C78.6616 242.082 82.6433 239.358 86.9249 238.288C92.6145 236.866 98.1586 243.515 103.164 245.448C105.144 246.214 108.121 247.048 110.196 246.343C114.535 244.87 116.615 240.085 120.553 238.352C129.163 234.564 134.653 251.077 142.163 252.929C150.006 254.863 153.54 248.753 160 246.599" stroke="#D2DE32" stroke-width="4.65547" stroke-linecap="round"/>
</svg>
